<svg width="51" height="31" viewBox="0 0 51 31" fill="none" xmlns="http://www.w3.org/2000/svg">
<g clip-path="url(#clip0_34_834)">
<path d="M28.6918 12.2572C28.6918 14.3623 27.1438 15.8642 24.9815 15.8642H22.9442C22.9106 15.8647 22.8778 15.8745 22.8498 15.8924C22.8218 15.9103 22.7998 15.9356 22.7864 15.9652C22.7778 15.9848 22.7733 16.0058 22.7733 16.027V18.7935C22.7733 18.815 22.7688 18.8363 22.7602 18.8561C22.7516 18.876 22.739 18.894 22.7231 18.9091C22.7072 18.9243 22.6884 18.9362 22.6676 18.9443C22.6469 18.9524 22.6247 18.9565 22.6023 18.9564H21.1766C21.1312 18.9564 21.0878 18.9391 21.0557 18.9083C21.0236 18.8775 21.0056 18.8358 21.0056 18.7923V8.81546C21.0051 8.78295 21.0148 8.75106 21.0336 8.72401C21.0524 8.69696 21.0794 8.67603 21.1108 8.66401C21.1317 8.65564 21.154 8.65135 21.1766 8.65139H24.9907C27.1438 8.65139 28.6918 10.1533 28.6918 12.2584V12.2572ZM26.9136 12.2572C26.9136 11.0481 26.0482 10.1646 24.875 10.1646H22.9442C22.9218 10.1646 22.8996 10.1689 22.8788 10.1771C22.8581 10.1854 22.8392 10.1975 22.8233 10.2127C22.8075 10.2279 22.7949 10.246 22.7863 10.2659C22.7777 10.2858 22.7733 10.3072 22.7733 10.3287V14.1781C22.773 14.1997 22.7773 14.2211 22.7859 14.241C22.7945 14.261 22.8072 14.2791 22.8232 14.2942C22.8391 14.3095 22.858 14.3216 22.8787 14.3298C22.8995 14.3381 22.9218 14.3422 22.9442 14.3422H24.875C26.0482 14.3485 26.9136 13.465 26.9136 12.2572ZM29.1153 17.0418C29.1003 16.7184 29.1703 16.3967 29.3191 16.1062C29.4678 15.8157 29.6903 15.5658 29.9662 15.3796C30.5226 14.9808 31.3919 14.7738 32.669 14.7309L34.0276 14.6854V14.303C34.0276 13.5369 33.4884 13.2138 32.623 13.2138C31.7576 13.2138 31.2091 13.5054 31.0842 13.9837C31.0735 14.0173 31.0517 14.0466 31.022 14.0672C30.9922 14.0877 30.9563 14.0983 30.9198 14.0973H29.5756C29.5386 14.0978 29.5025 14.0867 29.4726 14.0658C29.4427 14.0448 29.4207 14.0152 29.4099 13.9812C29.4028 13.9587 29.401 13.935 29.4046 13.9118C29.6045 12.7784 30.5936 11.9177 32.6848 11.9177C34.9101 11.9177 35.7137 12.9059 35.7137 14.7902V18.7935C35.7136 18.8152 35.7089 18.8366 35.7001 18.8565C35.6913 18.8765 35.6784 18.8945 35.6623 18.9096C35.6461 18.9248 35.627 18.9367 35.6061 18.9447C35.5851 18.9527 35.5627 18.9567 35.5401 18.9564H34.1855C34.1401 18.9564 34.0966 18.9391 34.0646 18.9083C34.0325 18.8775 34.0145 18.8358 34.0145 18.7923V18.4944C34.0149 18.4697 34.0075 18.4455 33.9931 18.4249C33.9788 18.4044 33.9582 18.3886 33.9342 18.3796C33.9105 18.3706 33.8846 18.3685 33.8596 18.3734C33.8346 18.3783 33.8116 18.3901 33.7935 18.4073C33.3858 18.8289 32.7308 19.1331 31.68 19.1331C30.1346 19.1331 29.1153 18.367 29.1153 17.0418ZM34.0276 16.1747V15.8642L32.2665 15.9526C31.3393 15.998 30.8001 16.364 30.8001 16.9824C30.8001 17.5428 31.2946 17.8533 32.16 17.8533C33.3345 17.8533 34.0276 17.2475 34.0276 16.1747ZM37.0737 21.9803V20.8205C37.074 20.7962 37.08 20.7722 37.0911 20.7504C37.1023 20.7286 37.1183 20.7094 37.1381 20.6943C37.1578 20.679 37.1807 20.668 37.2052 20.6621C37.2298 20.6563 37.2553 20.6556 37.2802 20.6602C37.488 20.6968 37.6984 20.7157 37.9102 20.7157C38.2729 20.7348 38.6317 20.6361 38.9287 20.4355C39.2258 20.2349 39.4438 19.9442 39.5476 19.6101L39.6357 19.3438C39.6489 19.3079 39.6489 19.2687 39.6357 19.2328L36.8146 12.3279C36.7982 12.29 36.7973 12.2476 36.8119 12.209C36.8265 12.1705 36.8556 12.1386 36.8935 12.1196C36.9186 12.1069 36.9466 12.1004 36.975 12.1007H38.3429C38.378 12.1008 38.4122 12.1111 38.4411 12.1302C38.47 12.1494 38.4921 12.1765 38.5046 12.208L40.4196 17.0784C40.4314 17.1111 40.4537 17.1394 40.4832 17.1593C40.5127 17.1792 40.5479 17.1898 40.584 17.1894C40.62 17.1894 40.6551 17.1787 40.6845 17.1588C40.7139 17.139 40.7362 17.1109 40.7484 17.0784L42.4122 12.2218C42.4235 12.1884 42.4456 12.1592 42.4755 12.1388C42.5053 12.1183 42.5412 12.1076 42.5779 12.1083H43.9931C44.0355 12.1085 44.0765 12.1234 44.1084 12.1503C44.1403 12.1772 44.161 12.2143 44.1667 12.2547C44.1699 12.2816 44.1663 12.3089 44.1562 12.3342L41.1377 20.0026C40.4433 21.786 39.253 22.2403 37.9417 22.2403C37.6929 22.2469 37.4444 22.2188 37.2039 22.157C37.1636 22.1475 37.1281 22.1245 37.104 22.0921C37.0799 22.0596 37.0687 22.02 37.0724 21.9803H37.0737ZM11.8411 8.07587C10.0465 8.063 8.31426 8.70706 6.99717 9.87688C6.94112 9.92579 6.90614 9.99303 6.89909 10.0654C6.89203 10.1378 6.91341 10.2101 6.95903 10.2681L7.77184 11.327C7.79817 11.3627 7.83238 11.3924 7.87203 11.414C7.91168 11.4356 7.9558 11.4485 8.00125 11.4519C8.0467 11.4553 8.09237 11.449 8.135 11.4335C8.17764 11.4181 8.2162 11.3938 8.24795 11.3624C8.72133 10.9113 9.28351 10.5551 9.90176 10.3146C10.52 10.0741 11.182 9.95403 11.849 9.96144C14.6373 9.96144 16.0933 11.9606 16.0933 13.937C16.0933 16.0826 14.5636 17.5946 12.3646 17.6236C10.6653 17.6236 9.3843 16.5508 9.3843 15.1322C9.38576 14.7735 9.47071 14.4196 9.63295 14.0965C9.7952 13.7733 10.0306 13.489 10.3221 13.2643C10.3841 13.2155 10.4235 13.1451 10.4316 13.0685C10.4398 12.9918 10.416 12.9153 10.3655 12.8554L9.51056 11.8268C9.48475 11.7952 9.45254 11.7689 9.41587 11.7495C9.3792 11.7302 9.33882 11.7181 9.29717 11.7141C9.25552 11.7101 9.21345 11.7142 9.1735 11.7262C9.13355 11.7382 9.09654 11.7578 9.0647 11.7839C8.54111 12.1869 8.11784 12.697 7.82576 13.2769C7.53472 13.8556 7.38323 14.4897 7.38253 15.1322C7.38253 17.5744 9.55922 19.489 12.3475 19.5041H12.387C15.6974 19.4637 18.0911 17.1263 18.0911 13.932C18.0911 11.0961 15.8986 8.07587 11.8411 8.07587Z" fill="#D9D9D9"/>
</g>
<defs>
<clipPath id="clip0_34_834">
<rect width="49.9785" height="30.2902" fill="white" transform="translate(0.572937)"/>
</clipPath>
</defs>
</svg>
