<svg width="36" height="11" viewBox="0 0 36 11" fill="none" xmlns="http://www.w3.org/2000/svg">
<path d="M31.2447 2.74756H30.8501C30.324 4.00965 29.9294 4.6407 29.5349 6.53383H32.0338C31.6392 4.6407 31.6392 3.75723 31.2447 2.74756ZM35.0588 10.1939H32.8229C32.6914 10.1939 32.6914 10.1939 32.5599 10.0677L32.2968 8.93181L32.1653 8.67939H29.0088C28.8773 8.67939 28.7457 8.67939 28.7457 8.93181L28.3512 10.0677C28.3512 10.1939 28.2196 10.1939 28.2196 10.1939H25.4577L25.7207 9.56285L29.5349 0.980632C29.5349 0.349586 29.9294 0.097168 30.587 0.097168H32.5599C32.6914 0.097168 32.8229 0.0971677 32.8229 0.349586L34.6642 8.55318C34.7958 9.05802 34.9273 9.43664 34.9273 9.94148C35.0588 10.0677 35.0588 10.0677 35.0588 10.1939ZM17.4348 9.81527L17.9609 7.54351C18.0924 7.54351 18.224 7.66972 18.224 7.66972C19.1446 8.04834 20.0653 8.30076 20.9859 8.17455C21.249 8.17455 21.6435 8.04834 21.9066 7.92213C22.5642 7.66972 22.5642 7.03867 22.0381 6.53383C21.7751 6.28142 21.3805 6.15521 20.9859 5.90279C20.4598 5.65037 19.9337 5.39795 19.5392 5.01932C17.9609 3.75723 18.487 1.99031 19.4077 1.10684C20.1968 0.602005 20.5914 0.097168 21.6435 0.097168C23.2218 0.097168 24.9316 0.0971677 25.7207 0.349586H25.8522C25.7207 1.10684 25.5892 1.73789 25.3262 2.49514C24.6685 2.24272 24.0109 1.99031 23.3533 1.99031C22.9588 1.99031 22.5642 1.99031 22.1696 2.11651C21.9066 2.11651 21.7751 2.24272 21.6435 2.36893C21.3805 2.62135 21.3805 2.99998 21.6435 3.2524L22.3011 3.75723C22.8272 4.00965 23.3533 4.26207 23.7479 4.51449C24.4055 4.89312 25.0631 5.52416 25.1946 6.28142C25.4577 7.4173 25.0631 8.42697 24.0109 9.18423C23.3533 9.68906 23.0903 9.94148 22.1696 9.94148C20.3283 9.94148 18.8816 10.0677 17.6979 9.68906C17.5663 9.94148 17.5663 9.94148 17.4348 9.81527ZM12.8315 10.1939C12.9631 9.31044 12.9631 9.31044 13.0946 8.93181C13.7522 6.15521 14.4098 3.2524 14.9359 0.475796C15.0674 0.223377 15.0674 0.097168 15.3305 0.097168H17.6979C17.4348 1.61168 17.1718 2.74756 16.7772 4.13586C16.3826 6.029 15.9881 7.92213 15.462 9.81527C15.462 10.0677 15.3305 10.0677 15.0674 10.0677L12.8315 10.1939ZM0.599976 0.349586C0.599976 0.223377 0.86302 0.097168 0.994543 0.097168H5.4663C6.12391 0.097168 6.65 0.475796 6.78152 1.10684L7.96522 6.66004C7.96522 6.78625 7.96522 6.78625 8.09674 6.91246C8.09674 6.78625 8.22827 6.78625 8.22827 6.78625L10.9902 0.349586C10.8587 0.223377 10.9902 0.097168 11.1218 0.097168H13.8837C13.8837 0.223377 13.8837 0.223377 13.7522 0.349586L9.67501 9.56285C9.54349 9.81527 9.54349 9.94148 9.41197 10.0677C9.28044 10.1939 9.0174 10.0677 8.75435 10.0677H6.78152C6.65 10.0677 6.51848 10.0677 6.51848 9.81527L4.41412 1.99031C4.15108 1.73789 3.75651 1.35926 3.23042 1.23305C2.44129 0.854422 0.994542 0.602004 0.731498 0.602004L0.599976 0.349586Z" fill="#D9D9D9"/>
</svg>
