<svg width="17" height="16" viewBox="0 0 17 16" fill="none" xmlns="http://www.w3.org/2000/svg">
<path fill-rule="evenodd" clip-rule="evenodd" d="M2.81586 3.46153C2.29651 4.36502 2.29651 5.57597 2.29651 8.00045C2.29651 10.4243 2.29651 11.6359 2.81586 12.5394C3.16033 13.1391 3.65784 13.6366 4.25755 13.9811C5.16104 14.5004 6.37199 14.5004 8.79647 14.5004C11.2203 14.5004 12.4319 14.5004 13.3354 13.9811C13.9351 13.6366 14.4326 13.1391 14.7771 12.5394C15.2964 11.6359 15.2964 10.4249 15.2964 8.00045C15.2964 5.57662 15.2964 4.36502 14.7771 3.46153C14.4326 2.86182 13.9351 2.36431 13.3354 2.01984C12.4319 1.50049 11.221 1.50049 8.79647 1.50049C6.37264 1.50049 5.16104 1.50049 4.25755 2.01984C3.65784 2.36431 3.16033 2.86182 2.81586 3.46153ZM11.5213 13.1614C10.8732 13.2199 10.0315 13.2212 8.79647 13.2212C7.56148 13.2212 6.71973 13.2199 6.07169 13.1614C5.44119 13.1049 5.11944 13.0015 4.89389 12.8722C4.49049 12.6405 4.15582 12.3058 3.9241 11.9024C3.7941 11.6768 3.6914 11.3551 3.63485 10.7246C3.57635 10.0765 3.57505 9.2348 3.57505 7.9998C3.57505 6.76481 3.57635 5.92306 3.63485 5.27502C3.6914 4.64452 3.79475 4.32277 3.9241 4.09722C4.15582 3.69382 4.49049 3.35915 4.89389 3.12743C5.11944 2.99743 5.44119 2.89473 6.07169 2.83818C6.71973 2.77968 7.56148 2.77838 8.79647 2.77838C10.0315 2.77838 10.8732 2.77968 11.5213 2.83818C12.1518 2.89473 12.4735 2.99808 12.6984 3.12743C13.102 3.35948 13.4368 3.69423 13.6688 4.09722C13.7982 4.32277 13.9015 4.64452 13.9581 5.27502C14.0166 5.92306 14.0179 6.76481 14.0179 7.9998C14.0179 9.2348 14.0166 10.0765 13.9581 10.7246C13.9015 11.3551 13.7982 11.6768 13.6688 11.9017C13.4372 12.3054 13.1025 12.6402 12.6991 12.8722C12.4735 13.0015 12.1518 13.1049 11.5213 13.1614ZM11.3107 4.61072C11.3107 4.37894 11.4027 4.15666 11.5666 3.99277C11.7305 3.82887 11.9528 3.7368 12.1846 3.7368C12.4164 3.7368 12.6386 3.82887 12.8025 3.99277C12.9664 4.15666 13.0585 4.37894 13.0585 4.61072C13.0585 4.84241 12.9665 5.06462 12.8026 5.22845C12.6388 5.39228 12.4166 5.48432 12.1849 5.48432C11.9532 5.48432 11.731 5.39228 11.5672 5.22845C11.4033 5.06462 11.3113 4.84241 11.3113 4.61072H11.3107ZM8.79647 4.61072C8.35141 4.61072 7.91071 4.69838 7.49953 4.8687C7.08835 5.03902 6.71474 5.28865 6.40003 5.60336C6.08533 5.91807 5.83569 6.29168 5.66537 6.70286C5.49505 7.11404 5.40739 7.55474 5.40739 7.9998C5.40739 8.44486 5.49505 8.88557 5.66537 9.29675C5.83569 9.70793 6.08533 10.0815 6.40003 10.3962C6.71474 10.7109 7.08835 10.9606 7.49953 11.1309C7.91071 11.3012 8.35141 11.3889 8.79647 11.3889C9.6954 11.3889 10.5575 11.0318 11.1931 10.3961C11.8288 9.76051 12.1859 8.8984 12.1859 7.99948C12.1859 7.10055 11.8288 6.23844 11.1931 5.60281C10.5575 4.96717 9.6954 4.61072 8.79647 4.61072ZM6.77238 8.00045C6.77238 7.73465 6.82474 7.47144 6.92646 7.22587C7.02818 6.98029 7.17727 6.75716 7.36523 6.56921C7.55318 6.38125 7.77631 6.23216 8.02189 6.13044C8.26746 6.02872 8.53067 5.97636 8.79647 5.97636C9.06228 5.97636 9.32548 6.02872 9.57106 6.13044C9.81663 6.23216 10.0398 6.38125 10.2277 6.56921C10.4157 6.75716 10.5648 6.98029 10.6665 7.22587C10.7682 7.47144 10.8206 7.73465 10.8206 8.00045C10.8206 8.53727 10.6073 9.05211 10.2277 9.4317C9.84813 9.81129 9.33329 10.0245 8.79647 10.0245C8.25965 10.0245 7.74482 9.81129 7.36523 9.4317C6.98564 9.05211 6.77238 8.53727 6.77238 8.00045Z" fill="#7F7F8A"/>
</svg>
