<svg width="16" height="16" viewBox="0 0 16 16" fill="none" xmlns="http://www.w3.org/2000/svg">
<g clip-path="url(#clip0_34_684)">
<path d="M15.7785 4.28319C15.6967 3.60011 15.0529 2.9451 14.3794 2.85735C10.2723 2.34703 6.1191 2.34703 2.0133 2.85735C1.33921 2.94491 0.695468 3.60011 0.613582 4.28319C0.32363 6.78666 0.32363 9.21402 0.613582 11.7169C0.695468 12.4 1.33921 13.0556 2.0133 13.1428C6.1191 13.6531 10.2724 13.6531 14.3794 13.1428C15.0529 13.0558 15.6967 12.4 15.7785 11.7169C16.0685 9.21425 16.0685 6.78666 15.7785 4.28319ZM6.89598 10.6005V5.40038L10.796 8.00055L6.89598 10.6005Z" fill="#7F7F8A"/>
</g>
<defs>
<clipPath id="clip0_34_684">
<rect width="15.5999" height="15.5999" fill="white" transform="translate(0.396729 0.200195)"/>
</clipPath>
</defs>
</svg>
