<svg width="17" height="16" viewBox="0 0 17 16" fill="none" xmlns="http://www.w3.org/2000/svg">
<g clip-path="url(#clip0_34_689)">
<path d="M16.0891 11.6099C14.0035 11.2667 13.0636 9.13038 13.0255 9.0397C13.0226 9.03385 13.0206 9.028 13.0167 9.02215C12.9105 8.80569 12.8851 8.62726 12.9436 8.49172C13.0577 8.22456 13.4945 8.08611 13.7831 7.99445C13.867 7.96813 13.946 7.94278 14.0113 7.91743C14.296 7.8053 14.4988 7.68342 14.6334 7.54594C14.7933 7.38115 14.8245 7.2232 14.8225 7.12082C14.8176 6.87121 14.6265 6.6489 14.3214 6.54067C14.219 6.49874 14.101 6.47632 13.982 6.47632C13.9011 6.47632 13.7802 6.48704 13.6661 6.54067C13.4224 6.65475 13.204 6.71715 13.0158 6.72593C12.9163 6.72105 12.8461 6.6996 12.8003 6.67912C12.8061 6.58162 12.812 6.48119 12.8188 6.37784L12.8217 6.33298C12.889 5.27702 12.9719 3.96364 12.6228 3.1836C12.3839 2.64928 12.0632 2.19004 11.6683 1.81757C11.3377 1.50556 10.9536 1.25205 10.5265 1.06484C9.78449 0.737229 9.09221 0.688477 8.7451 0.688477H8.74412C8.73047 0.688477 8.7178 0.688477 8.7061 0.688477C8.60957 0.689452 8.45258 0.691402 8.43796 0.691402C8.09182 0.691402 7.39857 0.740154 6.65461 1.06777C6.22852 1.25498 5.8463 1.50751 5.51674 1.81952C5.1238 2.19199 4.80398 2.65026 4.56607 3.18263C4.21701 3.96169 4.29989 5.27507 4.36619 6.33006V6.33201C4.37302 6.44511 4.38082 6.56309 4.38764 6.67815C4.33694 6.70058 4.25406 6.72593 4.13218 6.72593C3.93522 6.72593 3.70121 6.66352 3.43698 6.53969C3.35897 6.50362 3.27025 6.48509 3.17274 6.48509C3.01576 6.48509 2.84903 6.53092 2.7057 6.61575C2.52434 6.72203 2.40734 6.87121 2.37516 7.03794C2.35468 7.14714 2.35566 7.36458 2.59747 7.58494C2.73105 7.70584 2.92606 7.81797 3.17859 7.91743C3.24489 7.94375 3.32387 7.96813 3.40675 7.99445C3.69536 8.08611 4.13316 8.22456 4.24724 8.49172C4.30476 8.62726 4.27941 8.80569 4.17313 9.02215C4.17021 9.028 4.16728 9.03385 4.16533 9.0397C4.13803 9.1021 3.8894 9.66275 3.37945 10.2546C3.08986 10.591 2.77103 10.8728 2.43171 11.0912C2.01732 11.3583 1.56978 11.5319 1.10078 11.6089C0.916499 11.6392 0.784868 11.803 0.795594 11.9892C0.798519 12.0428 0.811194 12.0964 0.83362 12.1481V12.1491C0.908699 12.3236 1.08128 12.4709 1.36209 12.6005C1.70531 12.7595 2.21818 12.8931 2.88803 12.9974C2.92216 13.0617 2.95726 13.2226 2.98163 13.3328C3.00699 13.4498 3.03331 13.5707 3.07134 13.6984C3.11229 13.8369 3.21759 14.0027 3.48963 14.0027C3.59298 14.0027 3.71096 13.9793 3.84844 13.9529C4.0493 13.9139 4.32426 13.8603 4.6665 13.8603C4.85664 13.8603 5.05359 13.8769 5.25153 13.91C5.63374 13.9734 5.96331 14.2055 6.34455 14.4746C6.90227 14.8685 7.5341 15.3141 8.49939 15.3141C8.52571 15.3141 8.55204 15.3131 8.57836 15.3112C8.60957 15.3131 8.64954 15.3141 8.6905 15.3141C9.65578 15.3141 10.2876 14.8685 10.8453 14.4755L10.8463 14.4746C11.2276 14.2064 11.5571 13.9744 11.9393 13.911C12.1373 13.8778 12.3342 13.8613 12.5244 13.8613C12.852 13.8613 13.1113 13.9032 13.3424 13.9481C13.4935 13.9773 13.6105 13.9919 13.7012 13.9919H13.71H13.7188C13.9177 13.9919 14.0639 13.8827 14.1195 13.6926C14.1566 13.5668 14.1829 13.4498 14.2092 13.3299C14.2316 13.2265 14.2687 13.0608 14.3019 12.9964C14.9717 12.8911 15.4846 12.7585 15.8278 12.5996C16.1076 12.4699 16.2802 12.3227 16.3553 12.1491C16.3777 12.0974 16.3914 12.0438 16.3943 11.9882C16.405 11.8039 16.2734 11.6392 16.0891 11.6099Z" fill="#7F7F8A"/>
</g>
<defs>
<clipPath id="clip0_34_689">
<rect width="15.5999" height="15.5999" fill="white" transform="translate(0.7966 0.200195)"/>
</clipPath>
</defs>
</svg>
