<svg width="40" height="10" viewBox="0 0 40 10" fill="none" xmlns="http://www.w3.org/2000/svg">
<path d="M6.58442 2.95959L7.6024 5.32727H5.57433L6.58442 2.95959ZM27.7266 3.05803H23.8112V4.10178H27.6635V5.66551H23.8191V6.82916H27.7345V7.76185L30.4662 4.92845L27.7345 1.97516L27.7266 3.05803ZM9.23065 0.10474H14.485L15.6516 2.54689L16.7327 0.097168H30.3715L31.7893 1.59906L33.2558 0.097168H39.5202L34.8919 4.95874L39.4729 9.79003H33.1151L31.6973 8.28814L30.2176 9.79003H7.97724L7.32752 8.28814H5.84132L5.19028 9.79003H0.0464478L4.36827 0.097168H8.87948L9.23065 0.10474ZM20.6244 1.46527H17.6796L15.7068 5.92803L13.5696 1.46527H10.6471V7.53593L7.93778 1.46527H5.31654L2.18368 8.42192H4.22885L4.87857 6.92003H8.29289L8.94261 8.42192H12.52V3.45559L14.823 8.42949H16.3881L18.6766 3.47074V8.43075H20.5942L20.6257 1.46401L20.6244 1.46527ZM32.9086 4.95874L36.2374 1.46527H33.8411L31.7354 3.64364L29.6995 1.46527H21.9475V8.42949H29.589L31.7117 6.23598L33.7477 8.42949H36.2137L32.9099 4.95874H32.9086Z" fill="#D9D9D9"/>
</svg>
