<svg width="38" height="15" viewBox="0 0 38 15" fill="none" xmlns="http://www.w3.org/2000/svg">
<path d="M7.53802 2.2197C7.95625 1.71804 8.23984 1.04429 8.16507 0.355957C7.55322 0.385114 6.80672 0.743285 6.37419 1.24552C5.98605 1.67544 5.64258 2.37721 5.73195 3.03667C6.41887 3.09384 7.1052 2.70737 7.53802 2.2197Z" fill="#D9D9D9"/>
<path d="M8.15498 3.16888C7.15707 3.11171 6.30929 3.712 5.83297 3.712C5.35635 3.712 4.62683 3.19746 3.83774 3.21147C2.81093 3.22576 1.85829 3.78317 1.337 4.66931C0.265207 6.44158 1.05401 9.07141 2.0966 10.515C2.60271 11.2296 3.21278 12.0157 4.01647 11.9874C4.77607 11.9588 5.07366 11.5157 5.99651 11.5157C6.91905 11.5157 7.18715 11.9874 7.99114 11.9731C8.82462 11.9588 9.34592 11.2585 9.85203 10.5438C10.4329 9.72916 10.6703 8.94307 10.6852 8.90019C10.6703 8.8859 9.07782 8.29962 9.06293 6.54163C9.04804 5.0695 10.3134 4.36917 10.373 4.326C9.6584 3.3118 8.54193 3.19746 8.15468 3.16888" fill="#D9D9D9"/>
<path d="M18.096 1.17822C20.264 1.17822 21.774 2.61234 21.774 4.70019C21.774 6.79548 20.233 8.23702 18.0418 8.23702H15.6414V11.9005H13.9071V1.17822H18.096ZM15.6414 6.84007H17.6313C19.1416 6.84007 20.0007 6.05998 20.0007 4.70762C20.0007 3.35555 19.1413 2.58261 17.639 2.58261H15.6414V6.84007Z" fill="#D9D9D9"/>
<path d="M22.2027 9.67688C22.2027 8.30222 23.2944 7.5147 25.3075 7.39579L27.4678 7.26944V6.67487C27.4678 5.80588 26.8717 5.33023 25.811 5.33023C24.9358 5.33023 24.3007 5.761 24.1696 6.42218H22.6051C22.6519 5.03294 24.0144 4.02246 25.8574 4.02246C27.8396 4.02246 29.1327 5.01808 29.1327 6.56367V11.8985H27.5301V10.613H27.4913C27.0344 11.4526 26.0275 11.98 24.9358 11.98C23.3254 11.98 22.2027 11.059 22.2027 9.67688ZM27.4678 8.98597V8.38397L25.5399 8.50289C24.4556 8.56978 23.8908 8.95596 23.8908 9.632C23.8908 10.286 24.4791 10.7097 25.4005 10.7097C26.5771 10.7097 27.4678 9.98874 27.4678 8.98597Z" fill="#D9D9D9"/>
<path d="M30.6093 14.7621V13.4769C30.7178 13.4915 30.9808 13.5064 31.1202 13.5064C31.8867 13.5064 32.3204 13.1948 32.5837 12.3918L32.7386 11.9165L29.8039 4.11475H31.6156L33.66 10.4452H33.6987L35.7428 4.11475H37.5084L34.4652 12.3101C33.7681 14.1901 32.9707 14.807 31.2829 14.807C31.1512 14.807 30.7252 14.7921 30.6093 14.7621Z" fill="#D9D9D9"/>
</svg>
