<svg width="51" height="31" viewBox="0 0 51 31" fill="none" xmlns="http://www.w3.org/2000/svg">
<path d="M24.4691 15.1159V19.1546H23.1302V9.18404H26.6694C27.0935 9.17715 27.5148 9.25076 27.9091 9.40064C28.3034 9.55053 28.663 9.77372 28.9671 10.0574C29.2552 10.3154 29.4875 10.6253 29.6507 10.9694C29.8139 11.3136 29.9048 11.6852 29.9182 12.0631C29.9316 12.441 29.8673 12.8177 29.729 13.1718C29.5906 13.5258 29.3809 13.8502 29.1118 14.1264L28.9671 14.2728C28.349 14.8369 27.523 15.1436 26.6694 15.1234L24.4691 15.1159ZM24.4691 10.4057V13.9244H26.7023C27.1981 13.9396 27.6769 13.7541 28.0241 13.4146C28.2725 13.1661 28.4392 12.8531 28.5037 12.5145C28.5681 12.1758 28.5274 11.8265 28.3865 11.5099C28.2456 11.1932 28.0109 10.9234 27.7114 10.7338C27.412 10.5442 27.061 10.4433 26.7023 10.4436L24.4691 10.4057ZM32.997 12.107C33.8518 12.0692 34.6883 12.3443 35.3354 12.8807C35.9207 13.4234 36.2324 14.1807 36.1903 14.9619V19.1697H34.9159V18.2029H34.8514C34.6229 18.5655 34.2997 18.8647 33.9138 19.0707C33.5279 19.2768 33.0926 19.3827 32.651 19.3779C31.9302 19.4003 31.2272 19.16 30.6835 18.7052C30.4259 18.5036 30.2194 18.2484 30.0797 17.9589C29.9401 17.6694 29.8708 17.3532 29.8772 17.0342C29.8621 16.7119 29.9273 16.3907 30.0675 16.0975C30.2078 15.8042 30.4189 15.5473 30.6835 15.3481C31.3324 14.9002 32.1179 14.6716 32.9167 14.6981C33.5967 14.6729 34.2714 14.8155 34.8764 15.1159V14.8533C34.8808 14.6363 34.8338 14.4211 34.7388 14.2241C34.6437 14.0271 34.5033 13.8534 34.328 13.7162C33.9759 13.4091 33.5147 13.2429 33.039 13.2518C32.6936 13.2486 32.353 13.3301 32.0494 13.4884C31.7459 13.6468 31.4894 13.8768 31.3043 14.1567L30.1271 13.4449C30.4468 13.0054 30.8783 12.6517 31.3806 12.4176C31.883 12.1834 32.4394 12.0765 32.997 12.107ZM31.3043 17.0645C31.3011 17.228 31.3399 17.3897 31.4172 17.5354C31.4944 17.6811 31.6079 17.8063 31.7475 17.9C32.0408 18.1222 32.4051 18.2395 32.7799 18.232C33.3442 18.2307 33.8847 18.0174 34.2872 17.6363C34.6883 17.2753 34.9159 16.7717 34.9159 16.2442C34.4095 15.8988 33.7943 15.732 33.1745 15.7722C32.6933 15.754 32.2186 15.884 31.8198 16.1432C31.6619 16.2446 31.5323 16.3816 31.4424 16.5422C31.3525 16.7029 31.3051 16.8822 31.3043 17.0645ZM43.5174 12.3317L39.0588 22.1634H37.6805L39.3653 18.7204L36.4402 12.3317H37.8909L40.011 17.2349L42.0746 12.3317H43.5174Z" fill="#D9D9D9"/>
<path d="M19.0746 14.2417C19.0746 13.853 19.043 13.4642 18.9785 13.0806H13.3362V15.2854H16.5599C16.4942 15.6359 16.3556 15.9699 16.1522 16.2677C15.9488 16.5655 15.6848 16.8208 15.3762 17.0183V18.4495H17.3016C17.8871 17.9059 18.3474 17.2506 18.6527 16.5259C18.9581 15.8011 19.1018 15.023 19.0746 14.2417Z" fill="#D9D9D9"/>
<path d="M13.3396 19.8404C14.7947 19.8787 16.2103 19.3837 17.2984 18.4559L15.3703 17.0171C14.907 17.3022 14.3821 17.4821 13.8355 17.5432C13.2888 17.6043 12.7349 17.545 12.2157 17.3697C11.6966 17.1945 11.2259 16.908 10.8395 16.5319C10.4531 16.1559 10.1611 15.7003 9.98578 15.1997H8.01031V16.6764C8.50464 17.6268 9.2651 18.4262 10.2064 18.9851C11.1477 19.544 12.2327 19.8401 13.3396 19.8404Z" fill="#D9D9D9"/>
<path d="M9.98639 15.2079C9.73623 14.4977 9.73623 13.7283 9.98639 13.0181V11.5415H8.01093C7.58978 12.3385 7.3703 13.2194 7.3703 14.113C7.3703 15.0066 7.58978 15.8876 8.01093 16.6845L9.98639 15.2079Z" fill="#D9D9D9"/>
<path d="M13.3395 10.6537C14.1905 10.6388 15.0131 10.9473 15.628 11.512L17.3378 9.88008C16.2476 8.89819 14.8016 8.36262 13.3067 8.38703C12.2063 8.39233 11.129 8.68994 10.1941 9.24687C9.25922 9.8038 8.50334 10.5983 8.01025 11.5423L9.98572 13.0202C10.2167 12.3387 10.6645 11.7439 11.2661 11.3195C11.8677 10.895 12.5929 10.6622 13.3395 10.6537Z" fill="#D9D9D9"/>
</svg>
