<svg width="51" height="31" viewBox="0 0 51 31" fill="none" xmlns="http://www.w3.org/2000/svg">
<path d="M19.8499 23.9827C24.9345 23.9827 29.0565 20.0273 29.0565 15.1481C29.0565 10.2689 24.9345 6.31348 19.8499 6.31348C14.7653 6.31348 10.6433 10.2689 10.6433 15.1481C10.6433 20.0273 14.7653 23.9827 19.8499 23.9827Z" fill="#D9D9D9"/>
<path d="M30.3757 23.9827C35.4604 23.9827 39.5823 20.0273 39.5823 15.1481C39.5823 10.2689 35.4604 6.31348 30.3757 6.31348C25.2911 6.31348 21.1692 10.2689 21.1692 15.1481C21.1692 20.0273 25.2911 23.9827 30.3757 23.9827Z" fill="#D9D9D9"/>
<path d="M29.0605 15.1466C29.0605 12.1175 27.4823 9.46715 25.1149 7.95264C22.7475 9.59336 21.1692 12.2437 21.1692 15.1466C21.1692 18.0494 22.7475 20.826 25.1149 22.3405C27.4823 20.826 29.0605 18.1756 29.0605 15.1466Z" fill="#7F7F8A" fill-opacity="0.4"/>
</svg>
