<svg width="17" height="17" viewBox="0 0 17 17" fill="none" xmlns="http://www.w3.org/2000/svg">
<g clip-path="url(#clip0_104_2754)">
<path d="M15.0584 1.84602C13.1145 0.0110985 10.0512 0.0993996 8.21626 2.04325C6.45847 3.90538 6.45528 6.81445 8.20901 8.68043C9.83638 10.3025 9.84069 12.9367 8.21861 14.5641C8.21542 14.5673 8.21223 14.5705 8.20901 14.5737C7.43625 15.3565 6.38098 15.7952 5.28104 15.7912C2.98335 15.8036 1.11065 13.9509 1.09829 11.6533C1.09822 11.6433 1.09822 11.6333 1.09822 11.6233C1.08838 9.34626 2.92635 7.49236 5.20345 7.48252C5.36164 7.48185 5.51972 7.49026 5.67689 7.50773C5.8566 7.53308 6.02288 7.40794 6.04823 7.22819C6.04914 7.22178 6.04984 7.21537 6.05036 7.20893C6.07935 7.03811 5.96434 6.87614 5.79355 6.84718C5.77968 6.84484 5.76568 6.8434 5.7516 6.84295C3.09718 6.60759 0.75454 8.56867 0.519152 11.2231C0.283799 13.8776 2.24484 16.2202 4.8993 16.4556C6.32297 16.5818 7.72934 16.0704 8.73938 15.0592C10.5983 13.1603 10.5983 10.1237 8.73938 8.22478C7.11201 6.60854 7.10297 3.97908 8.71921 2.35167C8.7259 2.34492 8.73266 2.33819 8.73938 2.33151C10.3559 0.710295 12.9807 0.706548 14.6019 2.32314C15.3858 3.10475 15.8245 4.16745 15.8202 5.2744C15.8309 6.37998 15.3914 7.44239 14.6028 8.21729C13.7152 9.08801 12.4858 9.51792 11.249 9.38995C11.0721 9.37718 10.9183 9.51026 10.9056 9.68717C10.9055 9.6877 10.9055 9.68822 10.9054 9.68875C10.8765 9.85957 10.9915 10.0215 11.1623 10.0505C11.1761 10.0528 11.1901 10.0543 11.2042 10.0547H11.6897C14.3339 10.0671 16.4875 7.93365 16.5 5.28942C16.5 5.27443 16.5 5.25948 16.5 5.2445C16.4922 3.96473 15.9732 2.74108 15.0584 1.84602Z" fill="#7F7F8A"/>
</g>
<defs>
<clipPath id="clip0_104_2754">
<rect width="16" height="16" fill="white" transform="translate(0.5 0.5)"/>
</clipPath>
</defs>
</svg>
