<svg width="10" height="10" viewBox="0 0 10 10" fill="none" xmlns="http://www.w3.org/2000/svg">
<g clip-path="url(#clip0_25_405)">
<path d="M3.43755 6.09382C3.53026 6.09383 3.62089 6.06635 3.69798 6.01485C3.77507 5.96335 3.83516 5.89015 3.87065 5.80451C3.90614 5.71886 3.91544 5.62461 3.89736 5.53368C3.87929 5.44275 3.83466 5.35922 3.76911 5.29366C3.67979 5.20851 3.56111 5.16101 3.43771 5.16101C3.3143 5.16101 3.19562 5.20851 3.1063 5.29366C3.04077 5.35921 2.99615 5.44271 2.97806 5.53361C2.95998 5.62451 2.96925 5.71873 3.0047 5.80436C3.04015 5.89 3.10019 5.9632 3.17724 6.01472C3.25428 6.06624 3.34487 6.09376 3.43755 6.09382ZM3.32708 5.5146C3.35638 5.4853 3.39612 5.46885 3.43755 5.46885C3.47898 5.46885 3.51872 5.4853 3.54802 5.5146C3.57731 5.5439 3.59377 5.58363 3.59377 5.62507C3.59377 5.6665 3.57731 5.70623 3.54802 5.73553C3.51827 5.76398 3.4787 5.77985 3.43755 5.77985C3.39639 5.77985 3.35683 5.76398 3.32708 5.73553C3.29779 5.70623 3.28133 5.6665 3.28133 5.62507C3.28133 5.58363 3.29779 5.5439 3.32708 5.5146Z" fill="#141416"/>
<path d="M3.76895 7.16866C3.67962 7.08351 3.56095 7.03601 3.43754 7.03601C3.31414 7.03601 3.19546 7.08351 3.10614 7.16866C3.04059 7.23422 2.99595 7.31774 2.97787 7.40867C2.95979 7.49959 2.96908 7.59384 3.00456 7.67949C3.04004 7.76514 3.10012 7.83834 3.17721 7.88984C3.25429 7.94135 3.34492 7.96884 3.43762 7.96884C3.53033 7.96884 3.62095 7.94135 3.69804 7.88984C3.77512 7.83834 3.8352 7.76514 3.87068 7.67949C3.90616 7.59384 3.91545 7.49959 3.89737 7.40867C3.87929 7.31774 3.8345 7.23422 3.76895 7.16866ZM3.54801 7.61053C3.51827 7.63898 3.4787 7.65485 3.43754 7.65485C3.39639 7.65485 3.35682 7.63898 3.32708 7.61053C3.31215 7.59612 3.30025 7.57888 3.29206 7.55982C3.28387 7.54075 3.27956 7.52025 3.27938 7.4995C3.2792 7.47876 3.28315 7.45818 3.29101 7.43898C3.29887 7.41978 3.31047 7.40233 3.32514 7.38766C3.33981 7.37299 3.35726 7.36139 3.37646 7.35353C3.39566 7.34567 3.41623 7.34172 3.43698 7.3419C3.45773 7.34208 3.47823 7.34639 3.49729 7.35458C3.51636 7.36277 3.5336 7.37467 3.54801 7.3896C3.57731 7.4189 3.59376 7.45863 3.59376 7.50007C3.59376 7.5415 3.57731 7.58123 3.54801 7.61053Z" fill="#141416"/>
<path d="M4.6875 6.40625H2.1875C2.14606 6.40625 2.10632 6.42271 2.07701 6.45201C2.04771 6.48132 2.03125 6.52106 2.03125 6.5625C2.03125 6.60394 2.04771 6.64368 2.07701 6.67299C2.10632 6.70229 2.14606 6.71875 2.1875 6.71875H4.6875C4.72894 6.71875 4.76868 6.70229 4.79799 6.67299C4.82729 6.64368 4.84375 6.60394 4.84375 6.5625C4.84375 6.52106 4.82729 6.48132 4.79799 6.45201C4.76868 6.42271 4.72894 6.40625 4.6875 6.40625Z" fill="#141416"/>
<path d="M9.84378 1.875C9.80234 1.875 9.76259 1.89146 9.73329 1.92076C9.70399 1.95007 9.68753 1.98981 9.68753 2.03125V5.01188L5.24112 9.45984C5.2262 9.47426 5.21429 9.4915 5.20611 9.51056C5.19792 9.52962 5.19361 9.55013 5.19343 9.57087C5.19325 9.59162 5.1972 9.6122 5.20506 9.6314C5.21291 9.6506 5.22451 9.66805 5.23918 9.68272C5.25386 9.69739 5.2713 9.70899 5.2905 9.71685C5.30971 9.7247 5.33028 9.72866 5.35103 9.72848C5.37177 9.7283 5.39228 9.72399 5.41134 9.7158C5.4304 9.70761 5.44765 9.6957 5.46206 9.68078L9.95425 5.1875C9.96881 5.17294 9.98036 5.15564 9.98821 5.1366C9.99607 5.11756 10.0001 5.09716 10 5.07656V2.03125C10 1.98981 9.98357 1.95007 9.95426 1.92076C9.92496 1.89146 9.88522 1.875 9.84378 1.875Z" fill="#141416"/>
<path d="M9.06253 4.68753V1.15847L9.95425 0.266752C9.98271 0.237283 9.99846 0.197814 9.9981 0.156845C9.99775 0.115877 9.98131 0.0766877 9.95234 0.0477177C9.92337 0.0187477 9.88418 0.00231503 9.84322 0.00195903C9.80225 0.00160303 9.76278 0.0173522 9.73331 0.0458144L8.84159 0.937533H5.31253C5.27109 0.937542 5.23135 0.95401 5.20206 0.983314L0.0458089 6.13956C0.0165166 6.16887 6.10352e-05 6.2086 6.10352e-05 6.25003C6.10352e-05 6.29147 0.0165166 6.3312 0.0458089 6.3605L3.63956 9.95425C3.66886 9.98354 3.7086 10 3.75003 10C3.79146 10 3.8312 9.98354 3.8605 9.95425L9.01675 4.798C9.04605 4.76871 9.06252 4.72897 9.06253 4.68753ZM3.75003 9.62285L0.377215 6.25003L5.37722 1.25003H8.52909L7.46143 2.31769C7.29947 2.21049 7.10346 2.16726 6.91143 2.19639C6.71939 2.22552 6.54502 2.32493 6.42213 2.47534C6.29924 2.62575 6.23659 2.81644 6.24633 3.01042C6.25608 3.20441 6.33752 3.38786 6.47486 3.5252C6.6122 3.66254 6.79565 3.74398 6.98964 3.75373C7.18362 3.76347 7.37431 3.70082 7.52472 3.57793C7.67514 3.45504 7.77455 3.28067 7.80367 3.08863C7.8328 2.8966 7.78957 2.70059 7.68237 2.53863L8.75003 1.47097V4.62285L3.75003 9.62285ZM7.50003 2.96878C7.50003 3.06149 7.47254 3.15212 7.42103 3.22921C7.36952 3.30629 7.29631 3.36637 7.21066 3.40185C7.12501 3.43733 7.03076 3.44661 6.93983 3.42853C6.8489 3.41044 6.76538 3.3658 6.69982 3.30024C6.63427 3.23468 6.58962 3.15116 6.57153 3.06023C6.55345 2.9693 6.56273 2.87505 6.59821 2.7894C6.63369 2.70375 6.69377 2.63054 6.77085 2.57903C6.84794 2.52752 6.93857 2.50003 7.03128 2.50003C7.10088 2.5003 7.16953 2.51633 7.23206 2.54691L6.92081 2.85816C6.90589 2.87257 6.89398 2.88981 6.88579 2.90888C6.8776 2.92794 6.87329 2.94844 6.87311 2.96919C6.87293 2.98994 6.87689 3.01051 6.88474 3.02971C6.8926 3.04892 6.9042 3.06636 6.91887 3.08103C6.93354 3.0957 6.95099 3.1073 6.97019 3.11516C6.98939 3.12302 7.00997 3.12697 7.03072 3.12679C7.05146 3.12661 7.07197 3.1223 7.09103 3.11411C7.11009 3.10592 7.12733 3.09402 7.14175 3.0791L7.45315 2.768C7.48373 2.83053 7.49976 2.89918 7.50003 2.96878Z" fill="#141416"/>
</g>
<defs>
<clipPath id="clip0_25_405">
<rect width="10" height="10" fill="white"/>
</clipPath>
</defs>
</svg>
