<svg width="448" height="448" viewBox="0 0 448 448" fill="none" xmlns="http://www.w3.org/2000/svg">
<path d="M448 224C448 347.712 347.712 448 224 448C100.288 448 0 347.712 0 224C0 100.288 100.288 0 224 0C347.712 0 448 100.288 448 224ZM13.8949 224C13.8949 340.038 107.962 434.105 224 434.105C340.038 434.105 434.105 340.038 434.105 224C434.105 107.962 340.038 13.8949 224 13.8949C107.962 13.8949 13.8949 107.962 13.8949 224Z" fill="#F1E2CC"/>
<path d="M405 224C405 323.964 323.964 405 224 405C124.036 405 43 323.964 43 224C43 124.036 124.036 43 224 43C323.964 43 405 124.036 405 224ZM56.2246 224C56.2246 316.66 131.34 391.775 224 391.775C316.66 391.775 391.775 316.66 391.775 224C391.775 131.34 316.66 56.2246 224 56.2246C131.34 56.2246 56.2246 131.34 56.2246 224Z" fill="#F1E2CC"/>
<path d="M360 224C360 299.111 299.111 360 224 360C148.889 360 88 299.111 88 224C88 148.889 148.889 88 224 88C299.111 88 360 148.889 360 224ZM100.433 224C100.433 292.244 155.756 347.567 224 347.567C292.244 347.567 347.567 292.244 347.567 224C347.567 155.756 292.244 100.433 224 100.433C155.756 100.433 100.433 155.756 100.433 224Z" fill="#F1E2CC"/>
</svg>
